<svg width="40" height="41" viewBox="0 0 40 41" fill="none" xmlns="http://www.w3.org/2000/svg">
<path d="M17.1772 22.6415L18.5383 23.339C18.6545 22.5553 18.6128 21.8062 18.4202 21.0844L17.0156 21.4268L17.1772 22.6415ZM15.4184 28.4231L14.1493 27.7877L12.8304 28.3881L13.2234 29.5241C14.015 29.289 14.7458 28.9235 15.4184 28.4231Z" fill="white" stroke="white" stroke-width="1.84"/>
<path d="M14.0677 12.988C14.147 12.0342 14.9443 11.3004 15.9014 11.3004H19.8338C20.85 11.3004 21.6738 12.1242 21.6738 13.1404V15.5316C21.6738 16.5201 20.8927 17.332 19.9049 17.3702L14.4866 17.5798C14.1823 17.5916 13.896 17.6971 13.6618 17.8735L14.0677 12.988Z" fill="white" stroke="white" stroke-width="1.84"/>
<path d="M28.7551 24.6304L28.4579 20.2699C28.3928 19.3145 27.606 18.5677 26.6486 18.5526L23.2411 18.4989C22.225 18.4829 21.3895 19.2936 21.3749 20.3097L21.3463 22.3023C21.3321 23.2906 22.1012 24.1146 23.0882 24.1686L27.8817 24.4309C28.1833 24.4474 28.4786 24.5153 28.7551 24.6304Z" fill="white" stroke="white" stroke-width="1.84"/>
</svg>
