<svg width="23" height="15" viewBox="0 0 23 15" fill="none" xmlns="http://www.w3.org/2000/svg">
<path d="M11.5625 4.5C12.3581 4.5 13.1212 4.81607 13.6838 5.37868C14.2464 5.94129 14.5625 6.70435 14.5625 7.5C14.5625 8.29565 14.2464 9.05871 13.6838 9.62132C13.1212 10.1839 12.3581 10.5 11.5625 10.5C10.7669 10.5 10.0038 10.1839 9.44118 9.62132C8.87857 9.05871 8.5625 8.29565 8.5625 7.5C8.5625 6.70435 8.87857 5.94129 9.44118 5.37868C10.0038 4.81607 10.7669 4.5 11.5625 4.5ZM11.5625 0C16.5625 0 20.8325 3.11 22.5625 7.5C20.8325 11.89 16.5625 15 11.5625 15C6.5625 15 2.2925 11.89 0.5625 7.5C2.2925 3.11 6.5625 0 11.5625 0ZM2.7425 7.5C4.3925 10.86 7.8025 13 11.5625 13C15.3225 13 18.7325 10.86 20.3825 7.5C18.7325 4.14 15.3225 2 11.5625 2C7.8025 2 4.3925 4.14 2.7425 7.5Z" fill="#1696C8"/>
</svg>
