<svg width="14" height="15" viewBox="0 0 14 15" fill="none" xmlns="http://www.w3.org/2000/svg">
<path d="M7.2026 4.35967C7.33594 4.23967 7.49594 4.16634 7.66927 4.16634C7.84927 4.16634 8.0026 4.23967 8.1426 4.35967C8.26927 4.49967 8.33594 4.65967 8.33594 4.83301C8.33594 5.01301 8.26927 5.16634 8.1426 5.30634C8.0026 5.43301 7.84927 5.49967 7.66927 5.49967C7.49594 5.49967 7.33594 5.43301 7.2026 5.30634C7.07594 5.16634 7.0026 5.01301 7.0026 4.83301C7.0026 4.65967 7.07594 4.49967 7.2026 4.35967ZM5.53594 7.47967C5.53594 7.47967 6.9826 6.33301 7.50927 6.28634C8.0026 6.24634 7.9026 6.81301 7.85594 7.10634L7.84927 7.14634C7.75594 7.49967 7.6426 7.92634 7.52927 8.33301C7.27594 9.25967 7.02927 10.1663 7.08927 10.333C7.15594 10.5597 7.56927 10.273 7.86927 10.073C7.90927 10.0463 7.9426 10.0197 7.97594 9.99967C7.97594 9.99967 8.02927 9.94634 8.0826 10.0197C8.09594 10.0397 8.10927 10.0597 8.1226 10.073C8.1826 10.1663 8.21594 10.1997 8.13594 10.253L8.10927 10.2663C7.9626 10.3663 7.33594 10.8063 7.0826 10.9663C6.80927 11.1463 5.7626 11.7463 5.9226 10.5797C6.0626 9.75967 6.24927 9.05301 6.39594 8.49967C6.66927 7.49967 6.78927 7.04634 6.17594 7.43967C5.92927 7.58634 5.7826 7.67967 5.69594 7.73967C5.6226 7.79301 5.61594 7.79301 5.56927 7.70634L5.54927 7.66634L5.51594 7.61301C5.46927 7.54634 5.46927 7.53967 5.53594 7.47967ZM13.6693 7.49967C13.6693 11.1663 10.6693 14.1663 7.0026 14.1663C3.33594 14.1663 0.335938 11.1663 0.335938 7.49967C0.335938 3.83301 3.33594 0.833008 7.0026 0.833008C10.6693 0.833008 13.6693 3.83301 13.6693 7.49967ZM12.3359 7.49967C12.3359 4.55301 9.94927 2.16634 7.0026 2.16634C4.05594 2.16634 1.66927 4.55301 1.66927 7.49967C1.66927 10.4463 4.05594 12.833 7.0026 12.833C9.94927 12.833 12.3359 10.4463 12.3359 7.49967Z" fill="#50B5E5"/>
</svg>
